<svg width="239" height="204" viewBox="0 0 239 204" fill="none" xmlns="http://www.w3.org/2000/svg">
<path d="M128.662 42.6634L228.637 42.6634M128.25 33.2612C126.832 45.3725 124.894 52.2063 118.558 64.5047M230.044 39.4932C228.437 51.4884 224.815 58.3302 217.263 65.7158M162.682 12C169.124 18.1746 172.963 20.3524 180.036 22.9597M171 70.5C162.868 126.288 141 164 101.5 193M121.971 102.108L207.607 102.108M139.676 68.065H200.676" stroke="#213547" stroke-width="15" stroke-linecap="square"/>
<path d="M41.2143 8H78.1429H115.071M66.3143 43.9932C75.9423 66.3785 78.619 102 101 102M17.4048 43.9932H108M11 115.481C38.1172 100.501 67.9383 57.4229 76.9414 9.49088" stroke="#213547" stroke-width="15" stroke-linecap="square"/>
</svg>
